# xmcd
#
# Track frame offsets:
#	187
#	21285
#	37017
#	55592
#	69842
#	87840
#	106565
#	126815
#	146737
#	161977
#	176882
#	197907
#	216092
#	236880
#	251875
#	271417
#	287710
#	303180
#
# Disc length: 4343 seconds
#
# Revision: 0
# Processed by: cddbd v1.5.2PL0 Copyright (c) Steve Scherf et al.
# Submitted via: audiograbber 1.83.01
#
DISCID=0c10f512
DTITLE=John Hammond - John Hammond "Live"
DYEAR=1983
DGENRE=Blues
TTITLE0=I Wish You Would
TTITLE1=Saddle My Pony
TTITLE2=Cat Man Blues
TTITLE3=Custard Pie
TTITLE4=One Kind Favor
TTITLE5=I Can't Be Satisfied
TTITLE6=Dust My Broom
TTITLE7=Low Down Dog
TTITLE8=Little School Girl
TTITLE9=Shake For Me
TTITLE10=Drop Down Mama
TTITLE11=Texas Tornado
TTITLE12=Steady Rollin' Man
TTITLE13=Ain't That Lovin' You Baby
TTITLE14=Sail On
TTITLE15=Wang Dang Doodle
TTITLE16=Honeymoon Blues
TTITLE17=I'm Movin' On
EXTD=
EXTT0=
EXTT1=
EXTT2=
EXTT3=
EXTT4=
EXTT5=
EXTT6=
EXTT7=
EXTT8=
EXTT9=
EXTT10=
EXTT11=
EXTT12=
EXTT13=
EXTT14=
EXTT15=
EXTT16=
EXTT17=
PLAYORDER=
